<?xml version="1.0" encoding="utf-8"?>
<!-- Generator: Adobe Illustrator 25.0.0, SVG Export Plug-In . SVG Version: 6.00 Build 0)  -->
<svg version="1.1" id="katman_1" xmlns="http://www.w3.org/2000/svg" xmlns:xlink="http://www.w3.org/1999/xlink" x="0px" y="0px"
	 viewBox="0 0 4474 2756" style="enable-background:new 0 0 4474 2756;" xml:space="preserve">
<style type="text/css">
	.st0{fill:#3C4929;}
	.st1{fill:#B7CA9D;}
	.st2{fill:#4B612C;}
	.st3{fill:#759C3E;}
</style>
<path class="st0" d="M1691.1,973.7l-107.1,35l111,12.9L1691.1,973.7 M1685.8,1183.2l551.2,35.2l551.2-35.2L2237,1075.7
	L1685.8,1183.2 M2780.3,1021.5l109.7-12.9l-109.7-29.2V1021.5"/>
<path class="st1" d="M2386.9,1928.6l288.8,68.3l-289.5,87.3L2386.9,1928.6"/>
<path class="st2" d="M1685.8,598.6V403.7L2237,128.1l2.5,2.1l-1.3,247.4l-1.2,0.5l-2.1,5.7l-301.5,121.7l-2.8,428.7l160.5-27
	l145.9-29.2v1750l-165.1-82.5V2312l-144.6-57.8V1159l-241.4,24.2V988.3l-101.8,20.4V639.3L1685.8,598.6"/>
<path class="st3" d="M2091.1,907.3L1927.2,940V502l163.9,51.1L2091.1,907.3 M2522.3,270.8l265.8,132.9v194.9l101.9,40.7v369.4
	l-101.9-20.4v194.9l-129.8-12.9l-111.6-11.2V1378h241.5v200.4l-112.2,10.1v202.1l-273.9,54.4v233.5l273.3-81.1l0.6,206L2402.1,2312
	v233.5L2237,2628v-1750l145.8,29.1l156,20.6V505.5l-297.6-114.8l-4.2-12.6v-250L2522.3,270.8"/>
<path class="st0" d="M2402.1,444.1l-165.1-66L1927.2,502l163.9,51.1L2402.1,444.1"/>
<path class="st0" d="M1927.2,502L2237,378.1l65.2,26l99.9,39.9l144.6,57.9l-7.7,7.9l-147.3,45.9l-8.9-2.7L2237,502l-145.9,51.1
	L1927.2,502"/>
<path class="st2" d="M2382.8,553.1l163.9-51v438l-163.9-32.9V553.1"/>
</svg>
